HIERARCHY
ROOT root
{
	OFFSET 0.000000 0.000000 0.000000
	CHANNELS 6 Xposition Yposition Zposition Zrotation Yrotation Xrotation
	JOINT lhip
	{
		OFFSET 0.058581 -0.082280 -0.017664
		CHANNELS 3 Zrotation Yrotation Xrotation
		JOINT lknee
		{
			OFFSET 0.043451 -0.386469 0.008037
			CHANNELS 3 Zrotation Yrotation Xrotation
			JOINT lankle
			{
				OFFSET -0.014790 -0.426874 -0.037428
				CHANNELS 3 Zrotation Yrotation Xrotation
				JOINT ltoe
				{
					OFFSET 0.041054 -0.060286 0.122042
					CHANNELS 3 Zrotation Yrotation Xrotation
					End Site
					{
						OFFSET 0.000000 0.000000 0.000000
					}
				}
			}
		}
	}
	JOINT rhip
	{
		OFFSET -0.060310 -0.090513 -0.013543
		CHANNELS 3 Zrotation Yrotation Xrotation
		JOINT rknee
		{
			OFFSET -0.043257 -0.383688 -0.004843
			CHANNELS 3 Zrotation Yrotation Xrotation
			JOINT rankle
			{
				OFFSET 0.019056 -0.420046 -0.034562
				CHANNELS 3 Zrotation Yrotation Xrotation
				JOINT rtoe
				{
					OFFSET -0.034840 -0.062106 0.130323
					CHANNELS 3 Zrotation Yrotation Xrotation
					End Site
					{
						OFFSET 0.000000 0.000000 0.000000
					}
				}
			}
		}
	}
	JOINT lowerback
	{
		OFFSET 0.004439 0.124404 -0.038385
		CHANNELS 3 Zrotation Yrotation Xrotation
		JOINT upperback
		{
			OFFSET 0.004488 0.137956 0.026820
			CHANNELS 3 Zrotation Yrotation Xrotation
			JOINT chest
			{
				OFFSET -0.002265 0.056032 0.002855
				CHANNELS 3 Zrotation Yrotation Xrotation
				JOINT lowerneck
				{
					OFFSET -0.013390 0.211636 -0.033468
					CHANNELS 3 Zrotation Yrotation Xrotation
					JOINT upperneck
					{
						OFFSET 0.010113 0.088937 0.050410
						CHANNELS 3 Zrotation Yrotation Xrotation
						End Site
						{
							OFFSET 0.000000 0.000000 0.000000
						}
					}
				}
				JOINT lclavicle
				{
					OFFSET 0.071702 0.114000 -0.018898
					CHANNELS 3 Zrotation Yrotation Xrotation
					JOINT lshoulder
					{
						OFFSET 0.122921 0.045205 -0.019046
						CHANNELS 3 Zrotation Yrotation Xrotation
						JOINT lelbow
						{
							OFFSET 0.255332 -0.015649 -0.022946
							CHANNELS 3 Zrotation Yrotation Xrotation
							JOINT lwrist
							{
								OFFSET 0.265709 0.012698 -0.007375
								CHANNELS 3 Zrotation Yrotation Xrotation
								End Site
								{
									OFFSET 0.000000 0.000000 0.000000
								}
							}
						}
					}
				}
				JOINT rclavicle
				{
					OFFSET -0.082954 0.112472 -0.023707
					CHANNELS 3 Zrotation Yrotation Xrotation
					JOINT rshoulder
					{
						OFFSET -0.113228 0.046853 -0.008472
						CHANNELS 3 Zrotation Yrotation Xrotation
						JOINT relbow
						{
							OFFSET -0.260127 -0.014369 -0.031269
							CHANNELS 3 Zrotation Yrotation Xrotation
							JOINT rwrist
							{
								OFFSET -0.269108 0.006794 -0.006027
								CHANNELS 3 Zrotation Yrotation Xrotation
								End Site
								{
									OFFSET 0.000000 0.000000 0.000000
								}
							}
						}
					}
				}
			}
		}
	}
}
MOTION
Frames: 5
Frame Time: 0.033333
1.951234 -0.071229 1.038287 -2.306464 1.090283 100.657100 3.902438 3.991884 -11.012409 -4.797520 -18.423416 -4.457431 1.534374 12.395161 -5.458982 0.000000 -0.000000 0.000000 -1.167360 -6.695736 -13.184727 7.551188 11.714719 5.043287 8.049847 -13.231757 -5.270551 0.000000 -0.000000 0.000000 3.579227 0.497004 11.246772 -6.610790 0.936913 -30.980667 0.211160 3.402752 2.821216 -17.266009 5.372566 -0.222967 -6.724342 11.743392 -14.242252 32.059654 9.092515 -19.902281 10.049254 -7.941887 -27.874723 21.360255 -8.077721 -24.532733 14.130004 -15.223881 -6.196368 -32.108669 -5.299057 -20.360601 -29.254740 7.361738 -42.562238 -18.734593 0.706961 -30.789117 4.331613 4.452314 8.584817 
1.952105 -0.071765 1.038131 -2.311852 1.072483 100.787630 3.826824 3.990235 -11.084925 -4.783288 -18.468301 -4.540159 1.577436 12.425820 -5.415546 0.000000 -0.000000 0.000000 -1.223035 -6.762028 -13.247390 7.522505 11.764867 4.961283 8.072972 -13.246631 -5.260466 0.000000 -0.000000 0.000000 3.600842 0.486438 11.330051 -6.572135 0.962493 -31.117274 0.290680 3.406611 2.905035 -17.232537 5.209138 -0.094429 -6.758732 11.770611 -14.177865 31.626030 9.415877 -19.775052 9.681019 -7.722690 -27.848890 21.431580 -8.017252 -24.458355 14.320258 -15.193307 -6.390920 -31.790014 -5.598366 -20.120392 -29.173016 7.105470 -42.513237 -18.696946 0.525101 -30.810666 4.117318 4.583984 8.645695 
1.953386 -0.072608 1.037962 -2.314075 1.021353 100.976814 3.691081 3.948984 -11.184477 -4.761762 -18.466476 -4.663297 1.668603 12.439152 -5.351366 0.000000 -0.000000 0.000000 -1.336149 -6.816920 -13.346070 7.495908 11.849041 4.861467 8.083884 -13.315964 -5.227481 0.000000 -0.000000 0.000000 3.676450 0.498854 11.366852 -6.573069 1.044138 -31.249755 0.328221 3.380647 3.016005 -17.159831 4.875981 -0.052586 -6.718018 11.741967 -14.011042 31.115551 9.771245 -19.584920 9.188238 -7.420280 -27.796634 21.530869 -7.890233 -24.741698 14.238278 -15.178227 -6.340907 -31.438857 -5.901081 -19.959372 -28.955988 6.657437 -42.158688 -18.679689 0.388499 -31.114372 4.052528 4.647465 8.828342 
1.954477 -0.073402 1.037819 -2.294050 0.989271 101.124523 3.604711 3.892748 -11.269302 -4.761138 -18.474343 -4.741118 1.733210 12.439983 -5.295613 0.000000 -0.000000 0.000000 -1.420458 -6.839720 -13.406919 7.458205 11.879345 4.774367 8.119360 -13.395472 -5.198833 0.000000 -0.000000 0.000000 3.741405 0.508873 11.390490 -6.551717 1.097647 -31.361515 0.369141 3.316560 3.123705 -17.030319 4.685438 0.012748 -6.718841 11.846190 -13.958716 30.736019 10.100770 -19.332133 8.694539 -7.142741 -27.764729 21.652155 -7.835103 -24.884358 14.336950 -15.196616 -6.357700 -31.167929 -6.243167 -19.715901 -28.700624 6.352449 -42.008311 -18.706533 0.175460 -31.376091 4.057284 4.627572 8.969150 
1.955616 -0.074234 1.037691 -2.264593 0.961696 101.241471 3.521143 3.834415 -11.327062 -4.767583 -18.507777 -4.805848 1.802746 12.467073 -5.263114 0.000000 -0.000000 0.000000 -1.502621 -6.855879 -13.421679 7.414584 11.931458 4.669367 8.143011 -13.515016 -5.197489 0.000000 -0.000000 0.000000 3.786631 0.522273 11.428021 -6.512457 1.155140 -31.428567 0.431971 3.285932 3.208152 -16.887852 4.417654 0.093258 -6.698829 11.935391 -13.907646 30.276076 10.386898 -19.252310 8.272115 -7.017337 -27.656243 21.729725 -7.727573 -25.012280 14.690795 -15.166341 -6.359404 -30.845602 -6.514030 -19.579455 -28.549380 5.988190 -41.794845 -18.716031 -0.062064 -31.688933 4.087962 4.586808 9.085204 
